<?xml version="1.0" encoding="iso-8859-1"?>
<!-- Uploaded to: SVG Repo, www.svgrepo.com, Generator: SVG Repo Mixer Tools -->
<svg height="800px" width="800px" version="1.1" id="Layer_1" xmlns="http://www.w3.org/2000/svg" xmlns:xlink="http://www.w3.org/1999/xlink" 
	 viewBox="0 0 512 512" xml:space="preserve">
<g>
	<path style="fill:#6CC04A;" d="M100.89,460.117c-9.541,0-17.276-7.734-17.276-17.276c0-14.425-11.736-26.162-26.161-26.162
		c-9.541,0-17.276-7.734-17.276-17.276c0-9.542,7.735-17.276,17.276-17.276c33.476,0,60.712,27.237,60.712,60.713
		C118.166,452.383,110.43,460.117,100.89,460.117z"/>
	<path style="fill:#6CC04A;" d="M398.245,460.117c9.542,0,17.276-7.734,17.276-17.276c0-6.988,2.722-13.559,7.663-18.501
		c6.746-6.747,6.745-17.686-0.002-24.432c-6.747-6.745-17.687-6.744-24.431,0.003c-11.466,11.468-17.781,26.714-17.781,42.93
		C380.969,452.383,388.704,460.117,398.245,460.117z"/>
	<path style="fill:#6CC04A;" d="M393.846,246.967V118.008c0-17.728-14.37-32.099-32.098-32.099s-32.099,14.372-32.099,32.099V61.074
		c0-17.728-14.372-32.099-32.099-32.099c-17.727,0-32.097,14.372-32.097,32.099V40.197c0-17.728-14.372-32.099-32.1-32.099
		s-32.099,14.372-32.099,32.099v42.802c0-17.728-14.37-32.1-32.098-32.1s-32.099,14.372-32.099,32.1v104.404h0.162v24.806
		l-40.731-40.731c-12.227-12.229-32.054-12.229-44.282,0c-12.228,12.228-12.228,32.054,0,44.282l129.99,129.991v113.564h166.835
		V344.569c27.528-23.549,44.981-58.536,44.981-97.601H393.846z"/>
</g>
<path style="opacity:0.2;enable-background:new    ;" d="M139.535,303.092c13.713-13.713,13.714-35.948,0-49.661
	s-35.949-13.713-49.661,0L139.535,303.092z"/>
<path style="opacity:0.2;enable-background:new    ;" d="M201.251,147.657c19.393,0,35.115-15.722,35.115-35.115
	s-15.723-35.115-35.115-35.115V147.657z"/>
<path style="opacity:0.2;enable-background:new    ;" d="M265.451,111.949c11.684,0,21.158-9.471,21.158-21.158
	c0-11.684-9.474-21.156-21.158-21.156V111.949L265.451,111.949z"/>
<path style="fill:#5A3C3D;" d="M502.264,475.419c0-17.993-14.583-32.578-32.576-32.578H42.314
	c-17.992,0-32.577,14.585-32.577,32.578v28.484h492.525v-28.484H502.264z"/>
<path style="opacity:0.2;enable-background:new    ;" d="M467.977,472.886c0-4.644-3.762-8.401-8.4-8.401
	c-4.636,0-8.398,3.757-8.398,8.401c0,4.637,3.761,8.397,8.398,8.397C464.215,481.283,467.977,477.521,467.977,472.886z"/>
<path style="opacity:0.2;enable-background:new    ;" d="M70.773,468.518c0-4.644-3.762-8.401-8.4-8.401
	c-4.636,0-8.398,3.757-8.398,8.401c0,4.637,3.761,8.397,8.398,8.397C67.011,476.915,70.773,473.153,70.773,468.518z"/>
<path style="opacity:0.2;enable-background:new    ;" d="M105.324,477.758c0-4.644-3.762-8.401-8.4-8.401
	c-4.636,0-8.398,3.758-8.398,8.401c0,4.637,3.761,8.397,8.398,8.397C101.562,486.157,105.324,482.395,105.324,477.758z"/>
<path style="opacity:0.2;enable-background:new    ;" d="M198.992,283.2c0-4.644-3.762-8.401-8.4-8.401
	c-4.636,0-8.398,3.757-8.398,8.401c0,4.637,3.761,8.397,8.398,8.397C195.23,291.598,198.992,287.835,198.992,283.2z"/>
<path style="opacity:0.2;enable-background:new    ;" d="M231.969,410.374c0-4.644-3.762-8.401-8.4-8.401
	c-4.636,0-8.398,3.757-8.398,8.401c0,4.637,3.761,8.397,8.398,8.397C228.208,418.773,231.969,415.01,231.969,410.374z"/>
<path style="opacity:0.2;enable-background:new    ;" d="M316.282,369.506c0-4.644-3.762-8.401-8.4-8.401
	c-4.636,0-8.398,3.757-8.398,8.401c0,4.637,3.761,8.397,8.398,8.397C312.519,377.904,316.282,374.142,316.282,369.506z"/>
<path style="opacity:0.2;enable-background:new    ;" d="M370.147,168.124c0-4.644-3.762-8.401-8.4-8.401
	c-4.636,0-8.398,3.757-8.398,8.401c0,4.637,3.761,8.397,8.398,8.397C366.384,176.521,370.147,172.76,370.147,168.124z"/>
<path style="opacity:0.2;enable-background:new    ;" d="M342.983,221.304c0-4.644-3.762-8.401-8.4-8.401
	c-4.636,0-8.398,3.757-8.398,8.401c0,4.637,3.761,8.397,8.398,8.397C339.222,229.701,342.983,225.94,342.983,221.304z"/>
<path style="opacity:0.2;enable-background:new    ;" d="M172.624,95.593c0-4.644-3.762-8.401-8.4-8.401
	c-4.636,0-8.398,3.757-8.398,8.401c0,4.637,3.761,8.397,8.398,8.397C168.862,103.991,172.624,100.228,172.624,95.593z"/>
<path style="opacity:0.2;enable-background:new    ;" d="M231.969,238.103c0-4.644-3.762-8.401-8.4-8.401
	c-4.636,0-8.398,3.757-8.398,8.401c0,4.637,3.761,8.397,8.398,8.397C228.208,246.501,231.969,242.739,231.969,238.103z"/>
<path style="opacity:0.2;enable-background:new    ;" d="M299.482,127.553c0-4.644-3.762-8.401-8.4-8.401
	c-4.636,0-8.398,3.757-8.398,8.401c0,4.637,3.761,8.397,8.398,8.397C295.72,135.95,299.482,132.189,299.482,127.553z"/>
<path style="fill:#1E252B;" d="M469.688,434.743h-44.145c0.857-1.706,1.978-3.288,3.367-4.677
	c4.793-4.793,7.431-11.166,7.431-17.943c-0.001-6.776-2.64-13.149-7.434-17.941c-4.793-4.792-11.163-7.43-17.94-7.43h-0.003
	c-6.777,0.001-13.15,2.641-17.94,7.434c-11.066,11.068-17.879,25.245-19.664,40.558h-16.234v-86.513
	c28.636-25.889,44.981-62.578,44.981-101.263c0-0.556-0.056-1.098-0.162-1.622V118.008c0-22.165-18.032-40.197-40.196-40.197
	c-8.989,0-17.298,2.965-24.001,7.971V61.073c0-22.165-18.033-40.197-40.197-40.197c-9.597,0-18.42,3.382-25.339,9.016
	C267.646,12.704,251.954,0,233.35,0c-22.165,0-40.197,18.033-40.197,40.197v10.574c-6.703-5.006-15.01-7.971-24-7.971
	c-22.165,0-40.197,18.033-40.197,40.198v104.404c0,0.556,0.056,1.098,0.162,1.622v3.633l-26.906-26.906
	c-7.444-7.445-17.341-11.543-27.868-11.543s-20.424,4.1-27.868,11.542c-15.365,15.366-15.365,40.369,0,55.735l127.618,127.618
	v85.638H125.77c-4.023-34.138-33.117-60.713-68.317-60.713c-13.991,0-25.374,11.383-25.374,25.374
	c0,13.991,11.383,25.374,25.374,25.374c7.046,0,13.148,4.066,16.124,9.966H42.314c-22.427,0-40.675,18.246-40.675,40.676v28.484
	c0,4.473,3.625,8.098,8.098,8.098h492.525c4.473,0,8.098-3.625,8.098-8.098v-28.484
	C510.362,452.989,492.115,434.743,469.688,434.743z M404.477,405.635c1.732-1.732,4.036-2.687,6.488-2.687
	c2.452,0,4.756,0.954,6.49,2.686c3.579,3.579,3.579,9.401,0.001,12.981c-4.517,4.518-7.611,10.074-9.071,16.129H389.69
	C391.376,423.766,396.476,413.639,404.477,405.635z M57.929,210.033c-9.051-9.05-9.051-23.777,0-32.829
	c4.384-4.385,10.213-6.799,16.414-6.799s12.03,2.414,16.414,6.8l40.731,40.731c2.317,2.315,5.798,3.009,8.826,1.755
	c3.026-1.253,4.999-4.206,4.999-7.481v-24.806c0-0.556-0.056-1.098-0.162-1.622V82.999c0-13.235,10.767-24.002,24.002-24.002
	c13.233,0,24,10.767,24,24.002v80.468c0,4.473,3.625,8.098,8.098,8.098s8.098-3.625,8.098-8.098V40.197
	c0-13.235,10.767-24.001,24.001-24.001c13.235,0,24.002,10.767,24.002,24.001V153.75c0,4.473,3.625,8.098,8.098,8.098
	c4.473,0,8.098-3.625,8.098-8.098V61.073c0-13.235,10.767-24.001,23.999-24.001c13.235,0,24.001,10.767,24.001,24.001v102.394
	c0,4.473,3.625,8.098,8.098,8.098c4.473,0,8.098-3.625,8.098-8.098v-45.46c0-13.235,10.767-24.001,24.001-24.001
	s24,10.767,24,24.001v128.96c0,0.538,0.053,1.061,0.152,1.57c-0.449,34.622-15.75,67.306-42.136,89.878
	c-1.799,1.539-2.834,3.787-2.834,6.153v90.174h-150.64v-88.992c0-2.148-0.853-4.208-2.371-5.727L57.929,210.033z M57.454,408.58
	c-5.061,0-9.178-4.118-9.178-9.178s4.117-9.178,9.178-9.178c26.258,0,48.083,19.336,51.989,44.517H90.737
	C87.089,419.749,73.554,408.58,57.454,408.58z M494.166,495.804H17.837v-20.386c0-13.498,10.981-24.48,24.479-24.48h427.373
	c13.497,0,24.478,10.982,24.478,24.48V495.804z"/>
</svg>